#!OML:ASF I:\Actors\actors\Patient Classification 2\Patient 1\Session 1\actor1.ASF
:FULLY-SPECIFIED
:DEGREES
267
root -0.584058 18.4251 5.30024 0.348315 -0.825244 -0.66523
lowerback 16.96 -0.917527 1.91591
upperback 2.12367 -0.594112 3.35316
thorax -7.21838 -0.295811 2.64057
lowerneck -17.8122 -1.87403 -1.55344
upperneck 22.2032 -1.71018 -1.84256
head 10.0138 -1.14198 -0.623536
rclavicle 1.13307e-014 -2.14687e-014
rhumerus 47.5437 -2.34515 -29.5663
rradius 67.2312
rwrist -4.17108
rhand -20.0396 -27.4324
rfingers 7.12502
rthumb 6.30155 -57.3187
lclavicle 1.13307e-014 -2.14687e-014
lhumerus 2.66658 -35.7044 75.2145
lradius 107.752
lwrist 19.0707
lhand -17.5736 -33.6661
lfingers 7.12502
lthumb 8.68185 -3.86465
rfemur -2.87525 0.224886 13.3878
rtibia 17.9352
rfoot -19.8018 -5.91767
rtoes -14.2783
lfemur -11.2052 5.11545 -12.9391
ltibia 33.2702
lfoot -22.1208 6.40106
ltoes -56.9524
268
root -0.600287 18.4264 5.2937 0.452123 -0.56864 -0.670442
lowerback 16.9039 -0.78459 1.84534
upperback 2.1069 -0.434445 3.33504
thorax -7.21018 -0.21652 2.62366
lowerneck -17.8272 -2.02357 -1.77047
upperneck 22.0868 -1.89113 -1.7022
head 9.9788 -1.22587 -0.561794
rclavicle -5.76476e-015 1.59028e-015
rhumerus 47.5437 -2.34515 -29.5663
rradius 67.2312
rwrist -4.17108
rhand -20.0396 -27.4324
rfingers 7.12502
rthumb 6.30155 -57.3187
lclavicle -5.76476e-015 1.59028e-015
lhumerus 2.81457 -35.8315 75.1228
lradius 107.786
lwrist 18.9872
lhand -17.495 -33.754
lfingers 7.12502
lthumb 8.75773 -3.95569
rfemur -2.95858 0.089778 13.446
rtibia 17.9302
rfoot -19.8021 -5.95151
rtoes -13.8657
lfemur -11.3959 4.97655 -12.8913
ltibia 33.2809
lfoot -22.085 6.30883
ltoes -56.9381
269
root -0.614422 18.4301 5.28788 0.544549 -0.321527 -0.71299
lowerback 16.8679 -0.685899 1.82161
upperback 2.09599 -0.311755 3.30332
thorax -7.20604 -0.156646 2.57443
lowerneck -17.7913 -2.13515 -1.91872
upperneck 21.9344 -2.05194 -1.51727
head 9.92157 -1.28915 -0.492151
rclavicle -7.7526e-015 3.81667e-014
rhumerus 47.5437 -2.34515 -29.5663
rradius 67.2312
rwrist -4.17108
rhand -20.0396 -27.4324
rfingers 7.12502
rthumb 6.30155 -57.3187
lclavicle -7.7526e-015 3.81667e-014
lhumerus 2.98229 -35.9295 74.9323
lradius 107.789
lwrist 19.0051
lhand -17.4624 -33.745
lfingers 7.12502
lthumb 8.78916 -3.94804
rfemur -2.99782 -0.0618293 13.5396
rtibia 17.8683
rfoot -19.8119 -6.03526
rtoes -13.6308
lfemur -11.5673 4.77511 -12.8159
ltibia 33.2808
lfoot -22.011 6.32363
ltoes -56.9516
270
root -0.623218 18.4341 5.28236 0.590129 -0.115353 -0.814506
lowerback 16.8965 -0.611002 1.90595
upperback 2.09157 -0.197906 3.27638
thorax -7.23044 -0.104001 2.47217
lowerneck -17.7445 -2.24845 -2.00048
upperneck 21.7946 -2.21841 -1.39637
head 9.86575 -1.3573 -0.456806
rclavicle 1.59028e-015 4.77083e-015
rhumerus 47.5437 -2.34515 -29.5663
rradius 67.2312
rwrist -4.17108
rhand -20.0396 -27.4324
rfingers 7.12502
rthumb 6.30155 -57.3187
lclavicle 1.59028e-015 4.77083e-015
lhumerus 3.21896 -36.0585 74.6206
lradius 107.759
lwrist 19.1694
lhand -17.586 -33.658
lfingers 7.12502
lthumb 8.66988 -3.85605
rfemur -2.96554 -0.235824 13.6761
rtibia 17.7575
rfoot -19.7949 -6.06326
rtoes -13.477
lfemur -11.6709 4.5386 -12.691
ltibia 33.2628
lfoot -21.9563 6.36553
ltoes -56.9092
271
root -0.625959 18.4365 5.27806 0.591255 -0.0231729 -0.85456
lowerback 17.086 -0.530455 2.01049
upperback 2.02662 -0.0660682 3.22049
thorax -7.40866 -0.043597 2.32716
lowerneck -17.7591 -2.35436 -2.06775
upperneck 21.8102 -2.36401 -1.32283
head 9.8763 -1.4213 -0.440097
rclavicle -1.41137e-014 -9.54166e-015
rhumerus 47.5437 -2.34515 -29.5663
rradius 67.2312
rwrist -4.17108
rhand -20.0396 -27.4324
rfingers 7.12502
rthumb 6.30155 -57.3187
lclavicle -1.41137e-014 -9.54166e-015
lhumerus 3.32755 -36.2376 74.3948
lradius 107.738
lwrist 19.2758
lhand -17.6763 -33.5056
lfingers 7.12502
lthumb 8.58274 -3.70004
rfemur -2.89123 -0.361568 13.7201
rtibia 17.6139
rfoot -19.7525 -6.0233
rtoes -13.2067
lfemur -11.6911 4.35937 -12.6504
ltibia 33.2343
lfoot -21.9279 6.43388
ltoes -56.8482
272
root -0.62526 18.4392 5.27623 0.617733 -0.0572671 -0.858499
lowerback 17.3428 -0.440301 2.08288
upperback 1.88777 0.0784419 3.16573
thorax -7.7037 0.02337 2.20019
lowerneck -17.7263 -2.43986 -2.18343
upperneck 21.896 -2.48032 -1.20197
head 9.90456 -1.47069 -0.394969
rclavicle 1.78906e-015 7.95139e-015
rhumerus 47.5437 -2.34515 -29.5663
rradius 67.2312
rwrist -4.17108
rhand -20.0396 -27.4324
rfingers 7.12502
rthumb 6.30155 -57.3187
lclavicle 1.78906e-015 7.95139e-015
lhumerus 3.27082 -36.3967 74.3187
lradius 107.761
lwrist 19.3121
lhand -17.5892 -33.2932
lfingers 7.12502
lthumb 8.66679 -3.49111
rfemur -2.87177 -0.437826 13.7101
rtibia 17.4759
rfoot -19.6695 -5.98429
rtoes -13.1749
lfemur -11.6955 4.23902 -12.6651
ltibia 33.2017
lfoot -21.927 6.56769
ltoes -56.7846
273
root -0.621621 18.4428 5.27537 0.68898 -0.13655 -0.920961
lowerback 17.4477 -0.389041 2.15302
upperback 1.80414 0.16658 3.15807
thorax -7.85406 0.0634423 2.13426
lowerneck -17.6388 -2.48402 -2.23395
upperneck 21.8985 -2.54275 -1.15124
head 9.89091 -1.49771 -0.376154
rclavicle -2.78299e-015 -9.54166e-015
rhumerus 47.5437 -2.34515 -29.5663
rradius 67.2312
rwrist -4.17108
rhand -20.0396 -27.4324
rfingers 7.12502
rthumb 6.30155 -57.3187
lclavicle -2.78299e-015 -9.54166e-015
lhumerus 3.32144 -36.4511 74.19
lradius 107.75
lwrist 19.3133
lhand -17.5816 -33.1336
lfingers 7.12502
lthumb 8.67411 -3.33183
rfemur -2.9235 -0.539226 13.7566
rtibia 17.3732
rfoot -19.5277 -5.95486
rtoes -13.4658
lfemur -11.7315 4.17631 -12.6249
ltibia 33.1627
lfoot -21.8876 6.7055
ltoes -56.7101
274
root -0.615204 18.4459 5.27515 0.766905 -0.205775 -0.953599
lowerback 17.4169 -0.373353 2.15409
upperback 1.80396 0.186421 3.16284
thorax -7.83774 0.0730186 2.13361
lowerneck -17.6328 -2.48755 -2.22495
upperneck 21.8903 -2.55238 -1.14384
head 9.88686 -1.50048 -0.376196
rclavicle -3.97569e-016 3.73715e-014
rhumerus 47.5437 -2.34515 -29.5663
rradius 67.2312
rwrist -4.17108
rhand -20.0396 -27.4324
rfingers 7.12502
rthumb 6.30155 -57.3187
lclavicle -3.97569e-016 3.73715e-014
lhumerus 3.55498 -36.4447 73.9638
lradius 107.677
lwrist 19.2743
lhand -17.6952 -33.152
lfingers 7.12502
lthumb 8.56446 -3.34569
rfemur -2.99063 -0.585612 13.7724
rtibia 17.3094
rfoot -19.4199 -5.9912
rtoes -13.8813
lfemur -11.7708 4.0645 -12.6329
ltibia 33.119
lfoot -21.8509 6.84744
ltoes -56.6196
275
root -0.607544 18.4482 5.27677 0.814958 -0.274194 -0.918683
lowerback 17.4178 -0.370015 2.05062
upperback 1.79982 0.172557 3.17994
thorax -7.84278 0.0699199 2.21436
lowerneck -17.6204 -2.44846 -2.26274
upperneck 21.8913 -2.51142 -1.04828
head 9.88654 -1.47354 -0.330775
rclavicle 6.75868e-015 -7.15625e-015
rhumerus 47.5437 -2.34515 -29.5663
rradius 67.2312
rwrist -4.17108
rhand -20.0396 -27.4324
rfingers 7.12502
rthumb 6.30155 -57.3187
lclavicle 6.75868e-015 -7.15625e-015
lhumerus 3.68744 -36.4223 73.7897
lradius 107.64
lwrist 19.2455
lhand -17.7529 -33.3216
lfingers 7.12502
lthumb 8.50885 -3.51303
rfemur -3.03147 -0.531381 13.7211
rtibia 17.2728
rfoot -19.4227 -6.09251
rtoes -14.2873
lfemur -11.7699 3.87442 -12.7239
ltibia 33.0756
lfoot -21.8736 7.02828
ltoes -56.5047
276
root -0.600343 18.4497 5.27855 0.830885 -0.348348 -0.892972
lowerback 17.3813 -0.385537 1.88916
upperback 1.85672 0.12085 3.2222
thorax -7.76012 0.0507071 2.36261
lowerneck -17.5951 -2.35131 -2.18978
upperneck 21.8201 -2.40182 -1.03336
head 9.8548 -1.41483 -0.321687
rclavicle -1.33186e-014 2.38542e-015
rhumerus 47.5437 -2.34515 -29.5663
rradius 67.2312
rwrist -4.17108
rhand -20.0396 -27.4324
rfingers 7.12502
rthumb 6.30155 -57.3187
lclavicle -1.33186e-014 2.38542e-015
lhumerus 3.77538 -36.3309 73.5919
lradius 107.685
lwrist 19.2288
lhand -17.7362 -33.4274
lfingers 7.12502
lthumb 8.52488 -3.61952
rfemur -3.04398 -0.455325 13.6835
rtibia 17.2493
rfoot -19.4991 -6.16249
rtoes -14.3618
lfemur -11.7362 3.71804 -12.7878
ltibia 33.0349
lfoot -21.9055 7.12046
ltoes -56.297
277
root -0.593433 18.4516 5.28042 0.822241 -0.432075 -0.912304
lowerback 17.2345 -0.407883 1.72716
upperback 2.01921 0.0521196 3.26935
thorax -7.50163 0.0225056 2.51641
lowerneck -17.6458 -2.22686 -1.90241
upperneck 21.6982 -2.27457 -1.17561
head 9.81392 -1.34833 -0.401177
rclavicle 1.49089e-014 2.22639e-014
rhumerus 47.5437 -2.34515 -29.5663
rradius 67.2312
rwrist -4.17108
rhand -20.0396 -27.4324
rfingers 7.12502
rthumb 6.30155 -57.3187
lclavicle 1.49089e-014 2.22639e-014
lhumerus 4.08088 -36.2002 73.2603
lradius 107.727
lwrist 19.2247
lhand -17.6767 -33.4283
lfingers 7.12502
lthumb 8.58232 -3.62269
rfemur -3.02958 -0.38886 13.6975
rtibia 17.2316
rfoot -19.5357 -6.23406
rtoes -14.5838
lfemur -11.678 3.61149 -12.7856
ltibia 33.0021
lfoot -21.9302 7.14689
ltoes -56.031
278
root -0.585466 18.454 5.28486 0.825375 -0.513052 -0.930252
lowerback 17.115 -0.427054 1.6295
upperback 2.12317 0.00123335 3.28799
thorax -7.32198 0.00028821 2.59987
lowerneck -17.6462 -2.11224 -1.57606
upperneck 21.6116 -2.1778 -1.3015
head 9.77651 -1.29101 -0.485231
rclavicle 1.80894e-014 -2.70347e-014
rhumerus 47.5437 -2.34515 -29.5663
rradius 67.2312
rwrist -4.17108
rhand -20.0396 -27.4324
rfingers 7.12502
rthumb 6.30155 -57.3187
lclavicle 1.80894e-014 -2.70347e-014
lhumerus 4.40919 -36.1854 72.9109
lradius 107.735
lwrist 19.2454
lhand -17.6255 -33.4453
lfingers 7.12502
lthumb 8.6318 -3.64173
rfemur -3.02027 -0.333324 13.703
rtibia 17.2163
rfoot -19.5298 -6.30525
rtoes -14.9638
lfemur -11.6317 3.61036 -12.7903
ltibia 32.9793
lfoot -21.9318 7.21646
ltoes -55.9869
279
root -0.578828 18.4549 5.29072 0.852614 -0.612532 -0.907153
lowerback 17.0825 -0.426942 1.53667
upperback 2.1285 -0.0180977 3.28011
thorax -7.29765 -0.00670193 2.64802
lowerneck -17.6334 -2.03625 -1.40668
upperneck 21.6433 -2.12824 -1.27143
head 9.78306 -1.25074 -0.496313
rclavicle 2.06736e-014 -4.77083e-015
rhumerus 47.5437 -2.34515 -29.5663
rradius 67.2312
rwrist -4.17108
rhand -20.0396 -27.4324
rfingers 7.12502
rthumb 6.30155 -57.3187
lclavicle 2.06736e-014 -4.77083e-015
lhumerus 4.58922 -36.2707 72.6576
lradius 107.785
lwrist 19.2051
lhand -17.6201 -33.4084
lfingers 7.12502
lthumb 8.63694 -3.60504
rfemur -3.04098 -0.246961 13.659
rtibia 17.2006
rfoot -19.5482 -6.33921
rtoes -15.0777
lfemur -11.6098 3.76612 -12.8371
ltibia 32.9638
lfoot -21.9049 7.22347
ltoes -56.0896
280
root -0.574566 18.4541 5.29679 0.850837 -0.715146 -0.871245
lowerback 17.1155 -0.418223 1.42668
upperback 2.11794 -0.0269542 3.26325
thorax -7.32672 -0.0080449 2.69537
lowerneck -17.646 -1.99523 -1.30013
upperneck 21.7256 -2.11995 -1.19613
head 9.81381 -1.22959 -0.487594
rclavicle -8.94531e-015 5.56597e-015
rhumerus 47.5437 -2.34515 -29.5663
rradius 67.2312
rwrist -4.17108
rhand -20.0396 -27.4324
rfingers 7.12502
rthumb 6.30155 -57.3187
lclavicle -8.94531e-015 5.56597e-015
lhumerus 4.72389 -36.3504 72.502
lradius 107.855
lwrist 19.1297
lhand -17.6395 -33.3384
lfingers 7.12502
lthumb 8.61823 -3.53434
rfemur -3.03609 -0.138719 13.6035
rtibia 17.1959
rfoot -19.5953 -6.33337
rtoes -14.943
lfemur -11.5584 3.92997 -12.8842
ltibia 32.9573
lfoot -21.8844 7.15215
ltoes -56.064
281
root -0.570727 18.4531 5.30265 0.820607 -0.793722 -0.828612
lowerback 17.182 -0.417293 1.31957
upperback 2.11079 -0.0442346 3.25068
thorax -7.3702 -0.0133814 2.74824
lowerneck -17.5614 -1.9536 -1.10797
upperneck 21.6965 -2.10489 -1.25271
head 9.78426 -1.21327 -0.535882
rclavicle 1.19271e-014 3.18055e-015
rhumerus 47.5437 -2.34515 -29.5663
rradius 67.2312
rwrist -4.17108
rhand -20.0396 -27.4324
rfingers 7.12502
rthumb 6.30155 -57.3187
lclavicle 1.19271e-014 3.18055e-015
lhumerus 4.88614 -36.4062 72.3829
lradius 107.89
lwrist 19.1604
lhand -17.6685 -33.3291
lfingers 7.12502
lthumb 8.59023 -3.52382
rfemur -3.01033 -0.0160224 13.5424
rtibia 17.2151
rfoot -19.6598 -6.29604
rtoes -14.5337
lfemur -11.4933 4.00168 -12.9399
ltibia 32.965
lfoot -21.887 7.1444
ltoes -56.0231
